<svg width="46" height="48" viewBox="0 0 46 48" fill="none" xmlns="http://www.w3.org/2000/svg">
<path fill-rule="evenodd" clip-rule="evenodd" d="M33.2869 24.5467L33.3088 24.5466L33.3089 24.547C39.7758 24.547 45.0363 29.8075 45.0345 36.2726C45.0345 42.7392 39.7737 48 33.3071 48C27.6977 48 22.996 44.04 21.8486 38.7689H8.33661C7.00035 38.7689 5.91344 37.682 5.91344 36.3458V17.3929L3.7237 19.1688C3.43231 19.4054 3.00399 19.3612 2.76737 19.069L0.151433 15.8423C0.0378994 15.7022 -0.0148005 15.5229 0.00359096 15.3432C0.022696 15.1642 0.111819 14.9994 0.251883 14.8859L17.8511 0.616887C18.8716 -0.213577 20.3444 -0.204387 21.3541 0.637401L26.8703 5.11014V4.21707H26.4858V2.85645H31.9698L31.9694 4.21743H31.585V8.93356L38.9273 14.8862C39.2187 15.1227 39.2636 15.5511 39.027 15.8425L36.4111 19.0693C36.2975 19.2097 36.1334 19.2992 35.9538 19.3176C35.9301 19.32 35.9067 19.3211 35.883 19.3211C35.7277 19.3211 35.576 19.268 35.4547 19.1694L33.2649 17.3935V24.5469L33.2869 24.5467ZM30.2253 4.21739H28.2309V6.21328L30.2253 7.83068V4.21739ZM3.39618 17.6842L1.63689 15.5142L18.7082 1.67263C19.2264 1.25103 19.9738 1.25597 20.4852 1.68359C20.4877 1.68571 20.4908 1.68819 20.4937 1.69031L37.5424 15.5129L35.7831 17.6832L20.0183 4.90094C19.8938 4.79943 19.7414 4.74921 19.59 4.74921C19.4383 4.74921 19.2862 4.79979 19.1617 4.90094L3.39618 17.6842ZM11.7201 37.4094H19.3312H19.3315V21.3675C19.3315 21.1083 19.1207 20.8975 18.8615 20.8975H12.1901C11.9309 20.8975 11.7201 21.1083 11.7201 21.3675V37.4094ZM20.6912 37.4094V21.3675C20.6912 20.3581 19.8699 19.5375 18.8612 19.5375L12.1895 19.5372C11.1801 19.5372 10.3595 20.3584 10.3595 21.3672V37.409H8.33776C7.75134 37.409 7.27458 36.9323 7.27458 36.3458L7.27423 16.2901L19.5893 6.30573L31.9043 16.2901V24.6301C31.1866 24.7161 30.4881 24.8668 29.8164 25.0769L29.816 23.3398C29.816 22.5111 29.1423 21.837 28.3132 21.837H24.7437C23.915 21.837 23.2409 22.5107 23.2409 23.3398V29.7066C23.2409 29.8597 23.2645 30.0094 23.3091 30.1519C22.2137 31.9348 21.581 34.0316 21.581 36.2736C21.581 36.657 21.6001 37.0358 21.6358 37.4093L20.6912 37.4094ZM24.6019 27.2032V28.4256C24.9877 27.9983 25.4048 27.5987 25.849 27.2312V27.2032H24.6019ZM24.6019 25.8433V23.3401C24.6019 23.263 24.667 23.198 24.7444 23.198H25.849V25.8432L24.6019 25.8433ZM27.2086 25.8433H27.9513L27.9513 25.8433C28.1172 25.7577 28.2859 25.6763 28.4553 25.5982V23.3402C28.4553 23.2631 28.3903 23.198 28.3132 23.198H27.2086V25.8433ZM33.3084 46.6405C27.592 46.6405 22.9419 41.9899 22.9419 36.2731C22.9419 30.5568 27.5925 25.9066 33.3084 25.9066C39.0247 25.9066 43.6749 30.5573 43.6749 36.2731C43.6752 41.9895 39.0246 46.6405 33.3084 46.6405ZM36.4587 31.6373C36.4587 33.374 35.0461 34.7873 33.3087 34.7873C31.5717 34.7873 30.1584 33.374 30.1587 31.6373C30.1587 29.9003 31.5721 28.4873 33.3087 28.4873C35.0454 28.4873 36.4587 29.9007 36.4587 31.6373ZM33.3087 29.8472C34.2958 29.8472 35.0988 30.6501 35.0988 31.6366C35.0988 32.6237 34.2959 33.4267 33.3087 33.4267C32.3216 33.4267 31.5186 32.6238 31.5186 31.6366C31.5186 30.6501 32.3215 29.8472 33.3087 29.8472ZM27.2843 41.1661C27.2843 37.8443 29.9865 35.1417 33.3087 35.1417C36.6305 35.1417 39.3328 37.8446 39.3331 41.1661C39.3331 43.3021 36.088 44.06 33.3087 44.06C31.8303 44.06 30.4424 43.8489 29.3997 43.4648C27.6514 42.821 27.2843 41.8597 27.2843 41.1661ZM33.3084 42.6994C30.5185 42.6994 28.6438 41.9068 28.6438 41.1661C28.6438 38.5944 30.7366 36.5023 33.3084 36.5023C35.88 36.5023 37.9721 38.5943 37.9721 41.1661C37.9725 41.9067 36.0987 42.6994 33.3084 42.6994ZM18.5604 29.7538V27.7685C18.5604 27.3925 18.2562 27.0884 17.8802 27.0884C17.505 27.0884 17.2001 27.3929 17.2001 27.7685V29.7538C17.2001 30.1291 17.5046 30.4339 17.8802 30.4339C18.2555 30.4339 18.5604 30.1294 18.5604 29.7538Z" fill="white"/>
</svg>
