<svg width="48" height="22" viewBox="0 0 48 22" fill="none" xmlns="http://www.w3.org/2000/svg">
<path d="M0 20.793V16.445H4.57298V4.77891H7.0214L0.483062 8.48964V3.53928L6.12921 0.327484H9.91206V16.445H14.1948V20.793H0Z" fill="white"/>
<path fill-rule="evenodd" clip-rule="evenodd" d="M23.4786 21.1205C20.9924 21.1205 19.0397 20.5952 17.6206 19.5447C16.2015 18.4942 15.492 17.041 15.492 15.1849C15.492 13.7156 15.9274 12.5037 16.7983 11.5493C17.3438 10.9513 17.9822 10.509 18.7133 10.2221C18.1235 9.91074 17.6092 9.48822 17.1702 8.95456C16.4118 8.03258 16.0327 6.91723 16.0327 5.6085C16.0327 3.86132 16.7005 2.48977 18.0361 1.49386C19.3718 0.497954 21.1859 0 23.4786 0C25.7907 0 27.6114 0.497954 28.9408 1.49386C30.2703 2.48977 30.935 3.86132 30.935 5.6085C30.935 6.94203 30.569 8.07325 29.8371 9.00218C29.4127 9.54081 28.9135 9.9549 28.3395 10.2444C29.0628 10.5444 29.6892 10.9965 30.2186 11.601C31.0569 12.5582 31.4761 13.7528 31.4761 15.1849C31.4761 17.041 30.7665 18.4942 29.3472 19.5447C27.928 20.5952 25.9718 21.1205 23.4786 21.1205ZM23.4786 17.1054C24.5206 17.1054 25.3096 16.9072 25.8456 16.511C26.3816 16.1147 26.6496 15.5361 26.6496 14.7753C26.6496 14.0145 26.3816 13.4377 25.8456 13.0449C25.3096 12.6521 24.5206 12.4557 23.4786 12.4557C22.4435 12.4557 21.6563 12.6521 21.1168 13.0449C20.5774 13.4377 20.3076 14.0145 20.3076 14.7753C20.3076 15.5361 20.5774 16.1147 21.1168 16.511C21.6563 16.9072 22.4435 17.1054 23.4786 17.1054ZM25.4156 7.84102C24.9658 8.24078 24.3201 8.44065 23.4786 8.44065C22.644 8.44065 22.0018 8.24078 21.552 7.84102C21.1022 7.44127 20.8773 6.89697 20.8773 6.20814C20.8773 5.53865 21.1022 5.00577 21.552 4.6095C22.0018 4.21322 22.644 4.01508 23.4786 4.01508C24.3201 4.01508 24.9658 4.21322 25.4156 4.6095C25.8654 5.00577 26.0903 5.53865 26.0903 6.20814C26.0903 6.89697 25.8654 7.44127 25.4156 7.84102Z" fill="white"/>
<path d="M39.1076 19.6422V14.1839H33.7921V10.7394H39.1076V5.44476H42.6949V10.7394H48V14.1839H42.6949V19.6422H39.1076Z" fill="white"/>
</svg>
