<svg width="42" height="48" viewBox="0 0 42 48" fill="none" xmlns="http://www.w3.org/2000/svg">
<path fill-rule="evenodd" clip-rule="evenodd" d="M0.540753 8.58774L18.7686 15.2828L18.7687 15.2827C20.0585 15.7554 21.5071 15.7363 22.7409 15.2813L40.9688 8.58736C41.2943 8.46891 41.5095 8.1599 41.5095 7.81413C41.5095 7.46835 41.2929 7.15934 40.9688 7.04089L22.7418 0.347352C21.4797 -0.115784 20.0307 -0.115784 18.7686 0.347352L0.540753 7.04127C0.215201 7.15972 0 7.46872 0 7.8145C0 8.16028 0.21667 8.46929 0.540753 8.58774ZM19.3384 13.7344L3.21617 7.81412L19.3384 1.89382C20.2275 1.56716 21.2884 1.56716 22.176 1.89382L38.2982 7.81412L22.176 13.7344C21.2869 14.0611 20.226 14.0611 19.3384 13.7344Z" fill="white"/>
<path fill-rule="evenodd" clip-rule="evenodd" d="M11.2227 8.58905L19.6812 11.6948V11.6949C20.3649 11.9454 21.1463 11.9454 21.8298 11.6946L30.2883 8.58877C30.6138 8.47032 30.829 8.16132 30.829 7.81554C30.829 7.46976 30.6124 7.16075 30.2883 7.0423L21.8298 3.9368C21.1464 3.68629 20.3632 3.68629 19.6812 3.9368L11.2227 7.04258C10.8971 7.16103 10.6819 7.47004 10.6819 7.81582C10.6819 8.1616 10.8986 8.4706 11.2227 8.58905ZM20.2506 10.1466L13.8969 7.81395L20.2506 5.48131C20.5622 5.36691 20.9503 5.36691 21.2622 5.48131L27.6155 7.81395L21.2622 10.1466C20.9506 10.261 20.5626 10.261 20.2506 10.1466Z" fill="white"/>
<path d="M9.51814 23.1574C8.63712 22.8267 8.06809 22.049 8.06809 21.1791V10.7778C8.06809 10.3231 8.43705 9.95416 8.89172 9.95416C9.34639 9.95416 9.71536 10.3231 9.71536 10.7778V21.1781C9.71536 21.3525 9.86912 21.5279 10.0979 21.6137C15.9079 23.8006 25.6024 23.8006 31.4128 21.6137C31.6456 21.5265 31.7953 21.3551 31.7953 21.1781L31.7957 10.7778C31.7957 10.3231 32.1647 9.95416 32.6193 9.95416C33.074 9.95416 33.443 10.3231 33.443 10.7778V21.1781C33.443 22.0481 32.8739 22.8257 31.9929 23.1565C25.8154 25.481 15.7134 25.4865 9.51789 23.158L9.51814 23.1574Z" fill="white"/>
<path d="M38.087 21.2843C37.6324 21.2843 37.2634 20.9154 37.2634 20.4607V8.85593C37.2634 8.40126 37.6324 8.03229 38.087 8.03229C38.5417 8.03229 38.9107 8.40126 38.9107 8.85593V20.4607C38.9107 20.9169 38.5417 21.2843 38.087 21.2843Z" fill="white"/>
<path d="M38.087 29.6873C37.6324 29.6873 37.2634 29.3183 37.2634 28.8637V25.1736C37.2634 24.719 37.6324 24.35 38.087 24.35C38.5417 24.35 38.9107 24.719 38.9107 25.1736V28.8637C38.9107 29.318 38.5417 29.6873 38.087 29.6873Z" fill="white"/>
<path fill-rule="evenodd" clip-rule="evenodd" d="M34.8178 22.8168C34.8178 24.5708 36.2841 25.9976 38.087 25.9976C39.8899 25.9976 41.3562 24.5723 41.3562 22.8168C41.3562 21.0629 39.8899 19.636 38.087 19.636C36.2845 19.636 34.8178 21.0629 34.8178 22.8168ZM36.4666 22.8183C36.4666 21.974 37.1939 21.2865 38.087 21.2865C38.9802 21.2865 39.7074 21.973 39.7074 22.8183C39.7074 23.6626 38.9802 24.3501 38.087 24.3501C37.1939 24.3501 36.4666 23.6626 36.4666 22.8183Z" fill="white"/>
<path d="M37.3101 42.4287H23.0214C22.5668 42.4287 22.1978 42.0598 22.1978 41.6051C22.1978 41.1504 22.5668 40.7815 23.0214 40.7815H37.3101C38.7057 40.7815 39.862 39.6525 39.862 38.2296C39.862 36.8228 38.7183 35.6777 37.3116 35.6777H4.20083C2.80521 35.6777 1.64897 36.8067 1.64897 38.2296C1.64897 39.6363 2.79409 40.7799 4.20083 40.7799H18.2513C18.7059 40.7799 19.0749 41.1489 19.0749 41.6036C19.0749 42.0583 18.7059 42.4272 18.2513 42.4272H4.20083C1.88477 42.4272 0.00171375 40.5442 0.00171375 38.2281C0.00171375 35.9161 1.8697 34.029 4.20083 34.029H37.3107C39.6256 34.029 41.5098 35.912 41.5098 38.2281C41.5102 40.5482 39.6322 42.4286 37.3107 42.4286L37.3101 42.4287Z" fill="white"/>
<path d="M4.10233 42.4287C3.64766 42.4287 3.27869 42.0598 3.27869 41.6051C3.27869 41.1504 3.64766 40.7815 4.10233 40.7815H4.28736C5.68298 40.7815 6.83922 39.6525 6.83922 38.2296C6.83922 36.8228 5.69409 35.6777 4.28736 35.6777H4.10233C3.64766 35.6777 3.27869 35.3088 3.27869 34.8541C3.27869 34.3994 3.64766 34.0304 4.10233 34.0304H4.28736C6.60342 34.0304 8.48647 35.9135 8.48647 38.2296C8.48647 39.3515 8.04946 40.4054 7.25706 41.1993C5.85776 42.5975 4.18838 42.4121 4.10231 42.4287L4.10233 42.4287Z" fill="white"/>
<path d="M37.409 42.4287H37.224C34.9119 42.4287 33.0248 40.5607 33.0248 38.2296C33.0248 35.9135 34.9079 34.0305 37.224 34.0305H37.409C37.8637 34.0305 38.2326 34.3995 38.2326 34.8541C38.2326 35.3088 37.8637 35.6778 37.409 35.6778H37.224C35.8172 35.6778 34.6721 36.8229 34.6721 38.2296C34.6721 39.6252 35.801 40.7815 37.224 40.7815H37.409C37.8637 40.7815 38.2326 41.1505 38.2326 41.6051C38.2326 42.0598 37.8637 42.4288 37.409 42.4288V42.4287Z" fill="white"/>
<path fill-rule="evenodd" clip-rule="evenodd" d="M16.4369 38.2296C16.4369 40.5457 18.32 42.4287 20.6361 42.4287C22.9525 42.4287 24.8355 40.5457 24.8352 38.2296C24.8352 35.9135 22.9521 34.0305 20.6361 34.0305C18.32 34.0305 16.4369 35.9135 16.4369 38.2296ZM18.0842 38.2296C18.0842 36.8229 19.2293 35.6777 20.6361 35.6777C22.0442 35.6777 23.1879 36.8229 23.1879 38.2296C23.1879 39.6363 22.0428 40.7815 20.6361 40.7815C19.2293 40.7815 18.0842 39.6363 18.0842 38.2296Z" fill="white"/>
<path d="M22.4329 47.7532L20.6355 45.9246L18.8381 47.7532C18.322 48.2774 17.4263 47.911 17.4263 47.176V40.6171C17.4263 40.1625 17.7953 39.7935 18.2499 39.7935C18.7046 39.7935 19.0736 40.1625 19.0736 40.6171V45.1609L20.0458 44.171C20.3714 43.8403 20.9022 43.8443 21.2222 44.171L22.1944 45.1609V40.6171C22.1944 40.1625 22.5634 39.7935 23.0181 39.7935C23.4727 39.7935 23.8417 40.1625 23.8417 40.6171V47.176C23.8417 47.5111 23.6386 47.812 23.3296 47.9386C23.028 48.0637 22.6697 47.9945 22.4328 47.7532H22.4329Z" fill="white"/>
</svg>
