<svg width="48" height="31" viewBox="0 0 48 31" fill="none" xmlns="http://www.w3.org/2000/svg">
<path fill-rule="evenodd" clip-rule="evenodd" d="M4.93267 30.7196H43.0673C44.3727 30.7111 45.6224 30.1884 46.5456 29.2656C47.4689 28.3423 47.9911 27.0927 48 25.7873V4.93227C47.9911 3.62687 47.4689 2.37723 46.5456 1.45398C45.6224 0.531089 44.3727 0.00846673 43.0673 0H4.93267C3.62726 0.00847284 2.37763 0.531109 1.45437 1.45398C0.531089 2.37722 0.00885145 3.62687 0 4.93227V25.7873C0.00886692 27.0927 0.531119 28.3423 1.45437 29.2656C2.37762 30.1885 3.62726 30.7111 4.93267 30.7196ZM2.81141 2.80725C3.37367 2.24306 4.13603 1.92402 4.93267 1.91979H43.0565C43.8547 1.92095 44.6202 2.23883 45.1848 2.80341C45.7493 3.36793 46.0672 4.13339 46.0688 4.93196V25.787C46.0672 26.5836 45.7509 27.3471 45.1886 27.9117C44.6263 28.4759 43.864 28.7949 43.0673 28.7991H4.94352C4.1453 28.798 3.37983 28.4801 2.81526 27.9155C2.25068 27.351 1.93279 26.5855 1.93126 25.787V4.93196C1.93279 4.13532 2.24914 3.37182 2.81141 2.80725Z" fill="white"/>
<path d="M19.4143 13.4399H7.89423C7.3643 13.4399 6.93442 13.01 6.93442 12.4801C6.93442 11.9498 7.3643 11.5199 7.89423 11.5199H19.4143C19.9443 11.5199 20.3741 11.9498 20.3741 12.4801C20.3741 13.01 19.9443 13.4399 19.4143 13.4399Z" fill="white"/>
<path d="M22.6153 19.2221H7.89521C7.36527 19.2221 6.93539 18.7922 6.93539 18.2623C6.93539 17.732 7.36527 17.3021 7.89521 17.3021H22.6153C23.1452 17.3021 23.5751 17.732 23.5751 18.2623C23.5751 18.7922 23.1452 19.2221 22.6153 19.2221Z" fill="white"/>
<path fill-rule="evenodd" clip-rule="evenodd" d="M32.0901 15.242C32.7801 15.9321 33.716 16.3197 34.692 16.3197V16.3196C35.6677 16.3184 36.6028 15.9301 37.2925 15.2405C37.9825 14.5505 38.3704 13.6153 38.372 12.6397C38.372 11.6637 37.9844 10.7278 37.2944 10.0377C36.6039 9.34775 35.668 8.95982 34.692 8.95982C33.7161 8.95982 32.7801 9.34771 32.0901 10.0377C31.3997 10.7278 31.0121 11.6637 31.0121 12.6397C31.0121 13.6156 31.3997 14.552 32.0901 15.242ZM33.4474 11.3955C33.7776 11.0653 34.2252 10.8798 34.692 10.8798L34.6921 10.8798C35.1585 10.8814 35.6053 11.0673 35.9351 11.3971C36.2649 11.7269 36.4508 12.1737 36.452 12.6397C36.452 13.1066 36.2668 13.5542 35.9366 13.8844C35.6064 14.2146 35.1588 14.4001 34.692 14.4001C34.2252 14.4001 33.7776 14.2146 33.4474 13.8844C33.1176 13.5541 32.9321 13.1066 32.9321 12.6397C32.9321 12.1729 33.1176 11.7253 33.4474 11.3955Z" fill="white"/>
<path fill-rule="evenodd" clip-rule="evenodd" d="M41.1747 5.76015H28.2152C27.6849 5.76015 27.255 6.19003 27.255 6.72035V24C27.255 24.5303 27.6849 24.9602 28.2152 24.9602H41.1747C41.4295 24.9602 41.6735 24.859 41.8536 24.6789C42.0337 24.4988 42.1345 24.2548 42.1345 24V6.72035C42.1345 6.19003 41.7051 5.76015 41.1747 5.76015ZM29.2635 23.0398C29.5687 21.3257 30.6655 19.856 32.2218 19.0755C33.7781 18.295 35.6119 18.295 37.1683 19.0755C38.7246 19.856 39.8214 21.3257 40.1266 23.0398H29.2635ZM34.6921 16.557H34.6925L34.6921 16.5624C36.798 16.5639 38.8038 17.4606 40.2093 19.0285V7.67984H29.1749V19.0285C30.5797 17.4583 32.5855 16.5597 34.6921 16.557Z" fill="white"/>
</svg>
