<?xml version="1.0" encoding="utf-8"?>
<!-- Generator: Adobe Illustrator 27.5.0, SVG Export Plug-In . SVG Version: 6.00 Build 0)  -->
<svg version="1.1" xmlns="http://www.w3.org/2000/svg" xmlns:xlink="http://www.w3.org/1999/xlink" x="0px" y="0px"
	 viewBox="0 0 500 500" style="enable-background:new 0 0 500 500;" xml:space="preserve">
<g id="BACKGROUND">
	<g>
		<path style="fill:#EAF3FA;" d="M104.288,427.384V242.057c0-83.367,67.582-150.949,150.949-150.949h0
			c83.367,0,150.949,67.582,150.949,150.949v185.326"/>
	</g>
	<g>
		<g>
			<g>
				<path style="fill:#AFD1F2;" d="M459.086,253.727l-4.551-12.144c-0.225-0.601-0.894-0.905-1.495-0.68l-8.033,3.01
					c-0.493,0.185-1.041,0.01-1.351-0.415c-1.505-2.061-3.239-3.908-5.152-5.517c-0.403-0.339-0.54-0.898-0.322-1.377l3.552-7.808
					c0.266-0.584,0.008-1.272-0.576-1.538l-11.805-5.37c-0.584-0.266-1.272-0.008-1.538,0.576l-3.552,7.808
					c-0.218,0.479-0.729,0.744-1.249,0.663c-2.469-0.385-5.001-0.478-7.544-0.258c-0.524,0.045-1.016-0.253-1.201-0.746l-3.01-8.033
					c-0.225-0.6-0.894-0.905-1.495-0.68l-12.144,4.551c-0.601,0.225-0.905,0.894-0.68,1.495l3.01,8.033
					c0.185,0.493,0.01,1.041-0.415,1.351c-2.062,1.505-3.909,3.239-5.517,5.152c-0.339,0.403-0.898,0.54-1.377,0.322l-7.808-3.552
					c-0.584-0.266-1.272-0.007-1.538,0.576l-5.37,11.805c-0.266,0.584-0.008,1.272,0.576,1.538l7.808,3.552
					c0.479,0.218,0.743,0.729,0.662,1.249c-0.385,2.469-0.478,5.001-0.258,7.544c0.045,0.524-0.253,1.016-0.746,1.201l-8.033,3.01
					c-0.6,0.225-0.905,0.894-0.68,1.495l4.551,12.144c0.225,0.601,0.894,0.905,1.495,0.68l8.033-3.01
					c0.493-0.185,1.041-0.01,1.352,0.415c1.505,2.061,3.239,3.908,5.152,5.517c0.403,0.339,0.54,0.898,0.322,1.377l-3.552,7.808
					c-0.266,0.584-0.008,1.272,0.576,1.538l11.805,5.37c0.584,0.266,1.272,0.008,1.538-0.576l3.552-7.808
					c0.218-0.479,0.73-0.743,1.25-0.662c2.469,0.385,5.001,0.478,7.544,0.258c0.524-0.046,1.016,0.253,1.201,0.746l3.01,8.033
					c0.225,0.6,0.894,0.905,1.495,0.68l12.145-4.551c0.6-0.225,0.905-0.894,0.68-1.495l-3.01-8.033
					c-0.185-0.493-0.01-1.041,0.415-1.352c2.061-1.505,3.908-3.239,5.517-5.152c0.339-0.403,0.898-0.54,1.377-0.322l7.808,3.552
					c0.584,0.266,1.272,0.008,1.538-0.576l5.37-11.805c0.266-0.584,0.008-1.272-0.576-1.538l-7.808-3.552
					c-0.479-0.218-0.744-0.729-0.663-1.249c0.385-2.469,0.478-5.001,0.258-7.544c-0.045-0.524,0.253-1.016,0.746-1.201l8.033-3.01
					C459.006,254.997,459.311,254.327,459.086,253.727z M429.624,259.131c1.43,5.381-1.194,11.15-6.189,13.608
					c-6.751,3.322-14.785-0.333-16.718-7.604c-1.43-5.381,1.194-11.15,6.19-13.607C419.658,248.206,427.691,251.86,429.624,259.131z
					"/>
			</g>
			<g>
				<g>
					<path style="fill:#D3E3FC;" d="M418.158,287.593c-3.586,0-7.162-0.767-10.523-2.297c-6.187-2.815-10.907-7.869-13.292-14.234
						c-4.924-13.138,1.76-27.833,14.899-32.756c13.136-4.926,27.833,1.759,32.756,14.899l0,0
						c4.924,13.138-1.76,27.833-14.899,32.756C424.193,287.05,421.172,287.593,418.158,287.593z M418.146,240.036
						c-2.572,0-5.183,0.451-7.73,1.405c-11.41,4.275-17.213,17.037-12.939,28.446c4.275,11.409,17.034,17.215,28.446,12.939
						c11.409-4.275,17.213-17.036,12.939-28.446C435.541,245.516,427.098,240.036,418.146,240.036z"/>
				</g>
			</g>
		</g>
		<g>
			<g>
				<path style="fill:#AFD1F2;" d="M385.408,220.504v-8.967c0-0.443-0.359-0.803-0.803-0.803h-5.931
					c-0.364,0-0.677-0.246-0.774-0.597c-0.474-1.7-1.149-3.316-1.997-4.821c-0.179-0.317-0.132-0.712,0.126-0.97l4.194-4.194
					c0.314-0.314,0.314-0.822,0-1.135l-6.34-6.34c-0.313-0.314-0.822-0.314-1.135,0l-4.194,4.194
					c-0.257,0.257-0.653,0.305-0.97,0.126c-1.505-0.849-3.122-1.523-4.821-1.997c-0.35-0.098-0.597-0.411-0.597-0.774v-5.931
					c0-0.443-0.359-0.803-0.803-0.803h-8.967c-0.443,0-0.803,0.359-0.803,0.803v5.931c0,0.364-0.246,0.677-0.597,0.774
					c-1.7,0.474-3.316,1.149-4.821,1.997c-0.317,0.179-0.712,0.132-0.97-0.126l-4.194-4.194c-0.314-0.314-0.822-0.314-1.135,0
					l-6.34,6.34c-0.314,0.313-0.314,0.822,0,1.135l4.194,4.194c0.257,0.257,0.304,0.653,0.126,0.97
					c-0.849,1.505-1.523,3.121-1.997,4.821c-0.098,0.35-0.41,0.597-0.774,0.597h-5.931c-0.443,0-0.803,0.359-0.803,0.803v8.967
					c0,0.443,0.359,0.803,0.803,0.803h5.931c0.364,0,0.677,0.246,0.774,0.597c0.474,1.7,1.149,3.316,1.997,4.821
					c0.179,0.317,0.131,0.712-0.126,0.97l-4.194,4.194c-0.314,0.313-0.314,0.822,0,1.135l6.34,6.34c0.314,0.313,0.822,0.313,1.135,0
					l4.194-4.194c0.257-0.257,0.653-0.305,0.97-0.126c1.505,0.849,3.121,1.523,4.821,1.997c0.35,0.098,0.597,0.411,0.597,0.774
					v5.931c0,0.443,0.359,0.803,0.803,0.803h8.967c0.443,0,0.803-0.359,0.803-0.803v-5.931c0-0.364,0.246-0.676,0.597-0.774
					c1.7-0.474,3.316-1.149,4.821-1.997c0.317-0.179,0.712-0.132,0.97,0.126l4.194,4.194c0.314,0.313,0.822,0.313,1.135,0l6.34-6.34
					c0.314-0.314,0.314-0.822,0-1.135l-4.194-4.194c-0.257-0.257-0.304-0.653-0.126-0.97c0.849-1.505,1.523-3.122,1.997-4.821
					c0.098-0.35,0.411-0.597,0.774-0.597h5.931C385.048,221.307,385.408,220.947,385.408,220.504z M365.022,216.856
					c-0.379,3.831-3.478,6.929-7.308,7.309c-5.177,0.513-9.491-3.802-8.979-8.979c0.379-3.83,3.478-6.929,7.309-7.308
					C361.22,207.365,365.535,211.679,365.022,216.856z"/>
			</g>
			<g>
				<g>
					<path style="fill:#D3E3FC;" d="M356.878,233.906c-9.862,0-17.886-8.023-17.886-17.886c0-9.862,8.024-17.886,17.886-17.886
						c9.862,0,17.886,8.023,17.886,17.886C374.764,225.883,366.74,233.906,356.878,233.906z M356.878,201.036
						c-8.263,0-14.984,6.722-14.984,14.984c0,8.262,6.721,14.984,14.984,14.984c8.263,0,14.984-6.722,14.984-14.984
						C371.863,207.758,365.141,201.036,356.878,201.036z"/>
				</g>
			</g>
		</g>
		<g>
			<g>
				<path style="fill:#AFD1F2;" d="M375.998,293.829v-12.002c0-0.594-0.481-1.075-1.075-1.075h-7.939
					c-0.487,0-0.906-0.329-1.036-0.798c-0.635-2.275-1.538-4.439-2.673-6.454c-0.239-0.424-0.176-0.954,0.168-1.298l5.614-5.614
					c0.42-0.42,0.42-1.1,0-1.52l-8.487-8.487c-0.42-0.42-1.1-0.42-1.52,0l-5.614,5.614c-0.344,0.344-0.874,0.408-1.298,0.168
					c-2.015-1.136-4.178-2.038-6.454-2.673c-0.469-0.131-0.798-0.549-0.798-1.036v-7.939c0-0.594-0.481-1.075-1.075-1.075h-12.002
					c-0.594,0-1.075,0.481-1.075,1.075v7.939c0,0.487-0.33,0.905-0.799,1.036c-2.275,0.635-4.439,1.538-6.454,2.673
					c-0.424,0.239-0.953,0.176-1.298-0.168l-5.614-5.614c-0.42-0.42-1.1-0.42-1.52,0l-8.487,8.487c-0.42,0.42-0.42,1.1,0,1.52
					l5.614,5.614c0.345,0.344,0.408,0.874,0.168,1.298c-1.136,2.015-2.038,4.178-2.673,6.454c-0.131,0.469-0.55,0.798-1.036,0.798
					h-7.939c-0.594,0-1.075,0.481-1.075,1.075v12.002c0,0.594,0.481,1.075,1.075,1.075h7.939c0.487,0,0.906,0.33,1.036,0.799
					c0.635,2.275,1.538,4.439,2.673,6.454c0.239,0.424,0.176,0.953-0.168,1.298l-5.614,5.614c-0.42,0.42-0.42,1.1,0,1.52
					l8.487,8.487c0.42,0.42,1.1,0.42,1.52,0l5.614-5.614c0.344-0.344,0.874-0.408,1.298-0.168c2.015,1.136,4.178,2.038,6.454,2.673
					c0.469,0.131,0.799,0.549,0.799,1.036v7.939c0,0.594,0.481,1.075,1.075,1.075h12.002c0.594,0,1.075-0.481,1.075-1.075v-7.939
					c0-0.487,0.33-0.905,0.798-1.036c2.275-0.635,4.439-1.538,6.454-2.673c0.424-0.239,0.954-0.176,1.298,0.168l5.614,5.614
					c0.42,0.42,1.1,0.42,1.52,0l8.487-8.487c0.42-0.42,0.42-1.1,0-1.52l-5.614-5.614c-0.344-0.345-0.408-0.874-0.168-1.298
					c1.136-2.015,2.038-4.178,2.673-6.454c0.131-0.469,0.549-0.799,1.036-0.799h7.939
					C375.517,294.903,375.998,294.422,375.998,293.829z M348.71,288.945c-0.508,5.128-4.655,9.275-9.783,9.783
					c-6.929,0.686-12.705-5.089-12.019-12.019c0.508-5.128,4.655-9.275,9.783-9.783C343.621,276.241,349.396,282.016,348.71,288.945
					z"/>
			</g>
			<g>
				<g>
					<path style="fill:#D3E3FC;" d="M337.809,311.278c-12.93,0-23.45-10.52-23.45-23.45c0-12.93,10.52-23.45,23.45-23.45
						s23.45,10.52,23.45,23.45C361.259,300.758,350.74,311.278,337.809,311.278z M337.809,267.279
						c-11.33,0-20.549,9.219-20.549,20.549c0,11.33,9.219,20.549,20.549,20.549c11.33,0,20.549-9.219,20.549-20.549
						C358.358,276.497,349.14,267.279,337.809,267.279z"/>
				</g>
			</g>
		</g>
	</g>
	<g>
		<g>
			<g>
				<path style="fill:#82B379;" d="M133.624,413.25c-0.362,0.924-0.548,1.429-0.617,1.572
					c-21.819,1.019-110.479,2.717-81.797-49.221c2.308-10.922-15.056-18.618-16.038-26.261c0.001,0,24.506,4.027,24.506,4.027
					c1.173-0.459-24.326-13.246-24.23-13.556c-2.76-7.818-2.471-27.097,8.279-33.25c19.494-12.97,38.991,10.707,58.216,13.776
					c2.21,9.255,2.431,33.31,2.431,33.31l8.908-27.27C151.611,337.408,144.736,385.047,133.624,413.25z"/>
			</g>
			<g>
				<path style="fill:#FFFFFF;" d="M133.624,413.25c-0.346,0.901-0.564,1.436-0.603,1.556l-0.014,0.017c0,0-0.626,0.038-1.77,0.082
					l-17.062-22.148c-23.098,8.439-55.008,2.075-66.028-0.576c-0.432-0.104-0.837-0.201-1.201-0.299
					c-0.43-1.148-0.752-2.25-0.961-3.325c6.085,1.583,41.684,10.187,66.287,1.733l-21.025-27.299
					c-11.659,1.781-32.192-0.563-40.235-1.613c-0.25-1.154-0.651-2.255-1.172-3.316c6.068,0.823,26.921,3.413,39.2,2.07
					l-29.243-37.96c-7.867,0.614-21.707-2.099-25.873-2.972c-0.032-0.983-0.015-2.003,0.048-3.052
					c2.879,0.603,15.538,3.181,23.58,3.116l-16.215-20.978c0,0,0.693-0.594,1.055-0.854c0.461-0.331,1.335-0.87,1.335-0.87
					l10.491,13.615c2.209-7.197,1.893-14.485,1.618-17.515c1.063,0.007,2.117,0.091,3.185,0.239
					c0.323,3.867,0.522,12.221-2.489,20.27l21.623,28.08c5.741-14.852,5.076-34.329,4.846-38.542
					c1.032,0.547,2.067,1.084,3.094,1.61c0.27,6.859,0.311,25.419-5.809,39.693l40.211,52.197
					c13.791-26.563,13.068-56.388,12.861-60.944l3.076,5.117c-0.121,11.131-1.882,36.062-13.922,58.451L133.624,413.25z"/>
			</g>
		</g>
		<g>
			<g>
				<path style="fill:#A8D1A1;" d="M180.829,344.242c-0.602,1.079-0.949,1.649-0.949,1.649
					c-58.238,0.308-90.672-26.553-97.659-64.763c-0.028-0.243,0.193-0.438,0.432-0.386l22.472,4.884
					c0.391,0.085,0.604-0.44,0.265-0.651l-27.149-16.932c-13.725-20.671-3.237-35.911,4.761-52.004
					c3.586-15.751-6.327-37.871,16.466-45.581c25.28-9.659,35.867,20.153,54.03,26.537c-2.132,6.265-10.876,29.793-8.107,27.695
					c0.001,0,17.248-23.93,17.248-23.93c0.143-0.199,0.424-0.244,0.624-0.103C223.665,239.99,195.395,321.2,180.829,344.242z"/>
			</g>
			<g>
				<path style="fill:#82B379;" d="M180.829,344.242c-0.602,1.079-0.949,1.649-0.949,1.649c-0.574-0.003-1.138,0.006-1.711-0.007
					l-0.01-0.001l-11.898-25.412l-0.009-0.012c-12.02,1.865-27.933,0.741-41.996-1.119c-10.883-1.44-20.665-3.318-26.668-4.561
					c-1.062-1.278-2.043-2.545-2.96-3.815c9.942,2.16,47.439,9.76,70.269,6.57l-20.378-43.514
					c-32.322-4.348-64.272-20.347-72.923-24.935c-0.081-1.201-0.082-2.38-0.013-3.529c5.266,2.878,37.912,20.158,71.366,25.105
					l-22.884-48.876c-0.032-0.077-0.064-0.144-0.096-0.221l-4.958-10.571c-2.029-0.049-3.99-0.215-5.898-0.467
					c-11.776-1.557-21.205-6.489-25.334-8.966c-0.066-1.24-0.12-2.489-0.15-3.756c2.094,1.373,14.509,9.141,29.893,10.007
					l-16.919-36.137l1.335-0.627l0.077-0.032c0.487-0.207,0.971-0.393,1.452-0.559l22.158,47.34
					c5.66-10.043,9.312-25.268,11.42-36.626c0.897,0.87,1.783,1.749,2.658,2.627c-2.346,12.057-6.322,27.594-12.481,37.394
					l31.883,68.112c18.545-26.186,28.586-60.437,30.381-66.911c0.792,1.117,1.552,2.23,2.269,3.358
					c-3.142,10.658-13.434,42.465-31.128,66.791L180.829,344.242z"/>
			</g>
		</g>
	</g>
</g>
<g id="OBJECTS">
	<g>
		<g>
			<g>
				<path style="fill:#82B379;" d="M435.044,108.57H324.381c-3.605,0-6.528,2.923-6.528,6.528v60.666
					c0,3.605,2.923,6.528,6.528,6.528h7.515l-17.062,26.832c-0.597,0.939,0.548,2.01,1.445,1.349l38.253-28.181h80.512
					c3.605,0,6.528-2.923,6.528-6.528v-60.666C441.572,111.493,438.65,108.57,435.044,108.57z"/>
			</g>
			<g>
				<g>
					<path style="fill:#FFFFFF;" d="M427.354,138.869h-91.471c-1.335,0-2.418-1.082-2.418-2.418c0-1.335,1.082-2.418,2.418-2.418
						h91.471c1.335,0,2.418,1.082,2.418,2.418C429.771,137.787,428.689,138.869,427.354,138.869z"/>
				</g>
				<g>
					<path style="fill:#FFFFFF;" d="M401.162,158.892h-65.279c-1.335,0-2.418-1.082-2.418-2.418c0-1.335,1.082-2.418,2.418-2.418
						h65.279c1.335,0,2.418,1.082,2.418,2.418C403.579,157.81,402.497,158.892,401.162,158.892z"/>
				</g>
			</g>
		</g>
		<g>
			<g>
				<path style="fill:#A8D1A1;" d="M353.083,61.528h-95.051c-3.548,0-6.424,2.876-6.424,6.424v43.52
					c0,3.548,2.876,6.424,6.424,6.424h26.214l14.319,29.193c0.49,0.998,1.998,0.581,1.905-0.527l-2.405-28.666h55.019
					c3.548,0,6.424-2.876,6.424-6.424v-43.52C359.507,64.404,356.631,61.528,353.083,61.528z"/>
			</g>
			<g>
				<g>
					<path style="fill:#FFFFFF;" d="M341.213,86.119h-75.584c-1.335,0-2.418-1.082-2.418-2.418c0-1.335,1.082-2.418,2.418-2.418
						h75.584c1.335,0,2.418,1.082,2.418,2.418C343.631,85.037,342.548,86.119,341.213,86.119z"/>
				</g>
				<g>
					<path style="fill:#FFFFFF;" d="M341.213,100.684h-75.584c-1.335,0-2.418-1.082-2.418-2.418c0-1.335,1.082-2.418,2.418-2.418
						h75.584c1.335,0,2.418,1.082,2.418,2.418C343.631,99.602,342.548,100.684,341.213,100.684z"/>
				</g>
			</g>
		</g>
	</g>
	<g>
		<g>
			<path style="fill:#2A458A;" d="M196.56,153.333H92.921c-3.787,0-6.857-3.07-6.857-6.857V86.018c0-3.787,3.07-6.857,6.857-6.857
				h103.64c3.787,0,6.857,3.07,6.857,6.857v60.458C203.417,150.263,200.347,153.333,196.56,153.333z"/>
		</g>
		<g>
			<path style="fill:#AFD1F2;" d="M190.271,147.477H90.769c-3.787,0-6.857-3.07-6.857-6.857V82.777c0-3.787,3.07-6.857,6.857-6.857
				h99.502c3.787,0,6.857,3.07,6.857,6.857v57.842C197.128,144.407,194.058,147.477,190.271,147.477z"/>
		</g>
		<g>
			<path style="fill:none;stroke:#FFFFFF;stroke-width:2;stroke-linecap:round;stroke-miterlimit:10;" d="M187.556,142.144H93.484
				c-2.727,0-4.937-2.21-4.937-4.937V86.191c0-2.727,2.21-4.937,4.937-4.937h94.072c2.727,0,4.937,2.21,4.937,4.937v51.016
				C192.493,139.933,190.283,142.144,187.556,142.144z"/>
		</g>
		<g>
			<g>
				<g>
					<path style="fill:#FFFFFF;" d="M99.282,122.041c7.094-5.858,14.646-11.671,14.646-17.3c0-2.426-1.099-3.982-3.479-3.982
						c-2.334,0-3.707,1.831-3.707,4.989H99.19c0.229-8.101,5.492-11.579,11.579-11.579c7.598,0,10.985,4.44,10.985,10.069
						c0,7.323-6.545,13.181-11.854,17.255h12.358v6.362H99.282V122.041z"/>
				</g>
				<g>
					<path style="fill:#FFFFFF;" d="M141.249,122.361h-15.378v-6.316l14.463-20.687h8.742v20.229h3.753v6.774h-3.753v5.95h-7.827
						V122.361z M141.798,115.588v-11.625l-7.689,11.625H141.798z"/>
				</g>
			</g>
			<g>
				<g>
					<path style="fill:#FFFFFF;" d="M158.076,96.709h4.388v6.594c0.872-1.231,2.437-2.078,4.413-2.078
						c3.259,0,5.439,2.258,5.439,6.107v8.364h-4.362v-7.775c0-1.95-1.078-3.028-2.745-3.028s-2.745,1.078-2.745,3.028v7.775h-4.388
						V96.709z"/>
				</g>
				<g>
					<path style="fill:#FFFFFF;" d="M179.754,115.697h-4.388v-14.317h4.388v2.386c1.001-1.514,2.566-2.54,4.49-2.54v4.644h-1.206
						c-2.078,0-3.284,0.718-3.284,3.181V115.697z"/>
				</g>
			</g>
		</g>
	</g>
	<g>
		<path style="fill:#F6D822;" d="M322.298,276.184c0,0,27.774,15.521,34.309,48.196c6.535,32.676,11.436,99.66,11.436,99.66h-48.919
			L322.298,276.184z"/>
		<g>
			<path style="fill:#2A458A;" d="M272.398,205.911v4.48c-0.357,14.023-4.143,23.102-4.143,23.102h-25.163v-64.3
				c8.82,4.767,18.285,10.267,26.659,18.107C271.476,193.998,272.229,200.271,272.398,205.911z"/>
		</g>
		<g>
			<g>
				<g>
					<g>
						<path style="fill:#FEB182;" d="M261.327,269.069c0,0-0.756,10.942-10.091,17.894c-4.001,2.972-9.556,5.219-17.285,5.555
							c-20.403,0.914-36.606-16.749-37.1-17.285l-3.948-20.687l3.497-46.735c14.911,6.773,42.58,10.849,50.855,13.601
							L261.327,269.069z"/>
					</g>
					<path style="fill:#D98D5E;" d="M247.254,221.412c-8.275-2.751-35.943-6.827-50.855-13.601l-1.9,25.394
						c2.06,1.405,4.886,2.629,6.523,3.382c9.093,4.185,19.456,5.422,29.469,5.412c4.548-0.005,9.206-0.268,13.393-1.944
						c2.541-1.018,5.455-2.997,7.264-5.455L247.254,221.412z"/>
				</g>
				<g>
					<g>
						<g>
							<path style="fill:#FFE73E;" d="M222.442,409.478l0.195,14.563h-60.37c-0.124-34.775-1.344-134.999-49.093-138.871
								c-0.005-0.005,48.033-23.457,79.728-30.624c0.229,1.224,4.382,22.942,4.41,23.197h0.021
								C204.052,313.079,215.731,374.273,222.442,409.478z"/>
						</g>
					</g>
					<g>
						<g>
							<path style="fill:#FFE73E;" d="M328.016,280.269l2.014,147.04h-36.323c-7.786-37.765-27.964-136.856-35.845-175.072
								C262.641,252.404,315.597,268.085,328.016,280.269z"/>
						</g>
					</g>
					<g>
						<g>
							<path style="fill:#F6D822;" d="M222.442,409.478c-50.614-43.094-42.992-50.336-25.354-89.021
								c-40.727-23.033-49.455-37.39-4.186-65.914c0.229,1.225,4.38,22.947,4.416,23.203h0.012
								C199.581,289.643,219.645,394.792,222.442,409.478z"/>
						</g>
					</g>
					<g>
						<g>
							<path style="fill:#F6D822;" d="M289.51,406.083c30.307-59.164,20.496-62.944-10.585-91.954
								c28.835-36.847,29.932-53.103-22.801-62.165c0.257,1.22,6.204,22.533,6.269,22.783l-0.011,0.005
								C264.847,286.605,286.483,391.441,289.51,406.083z"/>
						</g>
					</g>
					<g>
						<g>
							<path style="fill:#F6D822;" d="M162.219,427.309H67.878c4.351-37.429,1.185-138.871,50.853-143.11
								C171.818,279.668,161.907,391.973,162.219,427.309z"/>
						</g>
					</g>
					<g>
						<g>
							<path style="fill:#CEE5FC;" d="M290.394,410.266h-67.805c-7-36.745-18.723-98.194-25.738-135.032
								c9.913,15.099,58.592,31.45,64.476-6.164C267.436,298.715,284.533,381.831,290.394,410.266z"/>
						</g>
					</g>
					<g>
						<g>
							<path style="fill:#AFD1F2;" d="M292.89,424.041h-67.805c-4.757-24.987-18.857-99.581-23.739-125.212
								c0.007-0.005,80.714,71.028,80.731,71.029C282.566,372.269,292.628,422.698,292.89,424.041z"/>
						</g>
					</g>
				</g>
			</g>
		</g>
		<g>
			<g>
				<g>
					<g>
						<g>
							<path style="fill:#FEB182;" d="M266.814,187.396c0,16.811-7.565,31.243-18.353,37.412c-3.61,2.068-7.582,3.214-11.744,3.214
								c-10.943,0-23.029-4.473-28.293-16.269c-2.74-6.118-3.154-16.387-3.154-24.048c0-22.428,14.826-40.928,31.447-40.928
								C253.338,146.778,266.814,164.968,266.814,187.396z"/>
						</g>
					</g>
					<g>
						<g>
							<path style="fill:#2A458A;" d="M273.321,233.839h-8.17c0,0,3.291-7.893,3.602-20.085c0.035-1.249,0.035-2.55,0-3.895
								c-0.146-4.903-0.801-10.357-2.301-16.182c-7.281-6.816-15.509-11.598-23.178-15.742
								c-10.164-5.499-19.339-9.887-23.996-16.405c-0.323-0.452-1.024-0.314-1.143,0.228c-2.563,11.632-12.998,44.018-1.652,73.63
								c0.141,0.367-0.124,0.759-0.517,0.759h-37.062c-0.214,0-0.407-0.116-0.501-0.308c-1.461-2.971-8.122-34.498-6.379-52.523
								c2.621-27.105,18.983-54.262,45.676-52.789c0,0,38.313-2.35,53.821,27.93c14.533,28.378,4.807,67.882,3.034,74.441
								C274.404,233.458,273.899,233.839,273.321,233.839z"/>
						</g>
					</g>
				</g>
				<g>
					<g>
						<g>
							<path style="fill:#2A458A;" d="M239.777,222.076l-8.238-0.646c-0.413-0.032-0.732-0.377-0.732-0.792v-3.362
								c0-0.415,0.319-0.76,0.732-0.792l8.238-0.646c1.088-0.085,2.018,0.775,2.018,1.866v2.507
								C241.794,221.302,240.865,222.162,239.777,222.076z"/>
						</g>
					</g>
					<g>
						<g>
							<g>
								<path style="fill:#FFFFFF;" d="M230.806,219.819h-29.87c-2.245,0-4.217-1.593-4.691-3.787l-1.621-7.508l1.685-0.364
									l1.621,7.508c0.303,1.406,1.568,2.427,3.007,2.427h29.87V219.819z"/>
							</g>
						</g>
					</g>
					<g>
						<g>
							<path style="fill:#ECBA2F;" d="M260.283,144.193c-0.207-0.181-0.414-0.362-0.629-0.534c-6.161-5.153-15.182-9.151-24.6-9.151
								c-19.396,0-35.129,15.725-35.129,35.129v15.57h-8.918v-18.344c0-20.878,16.931-37.809,37.809-37.809
								c9.65,0,18.499,3.421,25.401,9.125c0.009,0.009,0.017,0.009,0.026,0.017c0.974,0.81,1.913,1.663,2.809,2.559
								c1.06,1.06,2.068,1.999,2.999,3.154C260.136,144.004,260.205,144.099,260.283,144.193z"/>
						</g>
					</g>
					<g>
						<g>
							<path style="fill:#F9D044;" d="M195.295,193.638c0,8.124-3.024,14.705-6.751,14.705c-3.727,0-6.751-6.581-6.751-14.705
								c0-8.124,3.024-14.715,6.751-14.715C192.271,178.922,195.295,185.513,195.295,193.638z"/>
						</g>
					</g>
					<g>
						<g>
							<path style="fill:#ECBA2F;" d="M201.45,182.063v23.138c0,0.032,0,0.074-0.011,0.107c-0.053,1.682-1.427,3.035-3.131,3.035
								h-9.764c3.727,0,6.751-6.581,6.751-14.705c0-8.124-3.024-14.715-6.751-14.715h9.764c0.447,0,0.873,0.096,1.257,0.255
								C200.673,179.667,201.45,180.775,201.45,182.063z"/>
						</g>
					</g>
				</g>
			</g>
		</g>
	</g>
	<g>
		<g>
			<g>
				<g>
					<g>
						<path style="fill:#FEB182;" d="M275.683,419.618h-51.221c-2.412-7.36-3.719-17.86,2.202-28.343
							c0.518-0.912,1.097-1.833,1.737-2.746c0.114-0.184,0.246-0.368,0.377-0.553c0.097-0.132,0.184-0.254,0.272-0.377
							c0.053-0.061,0.096-0.123,0.14-0.184c0.009-0.009,0.018-0.026,0.026-0.035c0,0,8.641-1.851,18.378-1.447
							c6.807,0.263,14.158,1.632,19.439,5.509C274.92,397.222,276.017,410.363,275.683,419.618z"/>
					</g>
				</g>
			</g>
		</g>
		<g>
			<path style="fill:#F6D822;" d="M229.989,381.563c0,0-39.186,13.911-119.149,43.757c93.125,0,119.149-0.461,119.149-0.461V381.563
				z"/>
			<path style="fill:#FFFFFF;" d="M111.404,425.694c-0.616,0-1.194-0.382-1.413-0.996c-0.278-0.78,0.129-1.639,0.909-1.917
				l116.333-41.505c0.778-0.279,1.638,0.128,1.917,0.909c0.278,0.78-0.129,1.639-0.909,1.917l-116.333,41.505
				C111.741,425.666,111.571,425.694,111.404,425.694z"/>
		</g>
	</g>
	<g>
		<g>
			<g>
				<g>
					<polygon style="fill:#2A458A;" points="454.876,310.527 414.258,422.015 280.073,422.015 295.402,380.913 321.658,310.527 
											"/>
				</g>
			</g>
			<g>
				<g>
					<path style="fill:#CEE5FC;" d="M385.268,362.834c-1.841,5.9-7.62,9.346-12.908,7.696c-5.288-1.65-8.082-7.77-6.242-13.67
						c1.841-5.9,7.62-9.346,12.908-7.696C384.315,350.814,387.109,356.934,385.268,362.834z"/>
				</g>
			</g>
			<g style="opacity:0.3;">
				<g>
					<polygon style="fill:#2A458A;" points="454.876,310.527 414.258,422.015 319.124,422.015 					"/>
				</g>
			</g>
			<g>
				<g>
					<path style="fill:#FFFFFF;" d="M454.879,310.525l-3.302-5.257c-0.46-0.732-1.264-1.177-2.129-1.177l-131.385,0.004
						c-0.898,0-1.702,0.559-2.013,1.401l-40.541,109.478h-61.882c-1.107,0-2.005,0.898-2.005,2.005v5.036h68.451l15.329-41.102
						l26.069-70.388H454.879z"/>
				</g>
			</g>
		</g>
		<g>
			<g>
				<path style="fill:#2A458A;" d="M421.684,429.673H61.418c-2.094,0-3.792-1.927-3.792-4.305l0,0c0-2.377,1.698-4.304,3.792-4.304
					h360.266c2.095,0,3.792,1.927,3.792,4.304l0,0C425.476,427.746,423.778,429.673,421.684,429.673z"/>
			</g>
		</g>
	</g>
</g>
</svg>
